<svg width="185" height="14" viewBox="0 0 185 14" fill="none" xmlns="http://www.w3.org/2000/svg">
<path fill-rule="evenodd" clip-rule="evenodd" d="M175.133 2.76483C174.641 2.51444 174.445 1.91241 174.695 1.42014C174.946 0.927875 175.548 0.731794 176.04 0.98218L183.68 4.86831C184.002 4.80491 184.348 4.90091 184.593 5.15422C184.809 5.37686 184.9 5.67372 184.868 5.95927C184.894 6.15302 184.863 6.35631 184.768 6.54369C184.619 6.83685 184.345 7.02496 184.044 7.07629L177.997 12.9246C177.6 13.3086 176.966 13.298 176.583 12.901C176.199 12.5039 176.209 11.8709 176.606 11.4869L182.009 6.26218L175.133 2.76483ZM2.32722 5.16183L2.5632 5.16166L4.14978 5.16055L4.44604 5.16034L10.127 5.15635L12.127 5.15494L12.7728 5.15449L14.127 5.15354C14.1273 5.68399 14.0245 6.19039 13.8373 6.65374C14.0251 7.11683 14.1287 7.62309 14.1291 8.15354L12.7749 8.15449L12.1291 8.15494L10.1291 8.15635L4.44814 8.16034L4.15188 8.16055L2.56531 8.16166L2.32933 8.16182L1.94264 8.1621H1.94264C1.88627 8.16214 1.83062 8.15907 1.77586 8.15305C1.63305 8.13735 1.49626 8.1016 1.36838 8.04868C1.00161 7.89689 0.708117 7.60381 0.555813 7.23725C0.534478 7.1859 0.515913 7.13311 0.500306 7.07907C0.462171 6.94702 0.441691 6.80747 0.441589 6.66315C0.441489 6.51883 0.461773 6.37925 0.499723 6.24715C0.515254 6.19308 0.533745 6.14026 0.555008 6.08889C0.706798 5.72212 0.999881 5.42863 1.36643 5.27632C1.49424 5.22322 1.63098 5.18728 1.77377 5.17138C1.82852 5.16529 1.88416 5.16214 1.94053 5.1621H1.94054L2.32722 5.16183ZM22.4999 5.14766C22.5002 5.67811 22.6038 6.18437 22.7917 6.64746C22.6045 7.1108 22.5016 7.61721 22.502 8.14766L23.8561 8.14671L24.502 8.14626L26.502 8.14485L42.8749 8.13336L44.8748 8.13195L45.5207 8.1315L46.8748 8.13055C46.8745 7.6001 46.7709 7.09385 46.583 6.63077C46.7702 6.16742 46.8731 5.661 46.8727 5.13055L45.5186 5.1315L44.8727 5.13195L42.8727 5.13336L26.4999 5.14485L24.4999 5.14626L23.854 5.14671L22.4999 5.14766ZM55.2456 5.12467C55.246 5.65512 55.3496 6.16138 55.5374 6.62446C55.3503 7.08781 55.2473 7.59421 55.2477 8.12467L56.6019 8.12372L57.2477 8.12326L59.2477 8.12186L75.6206 8.11036L77.6206 8.10896L78.2664 8.10851L79.6206 8.10756C79.6202 7.57711 79.5166 7.07086 79.3288 6.60778C79.516 6.14443 79.6189 5.63801 79.6185 5.10756L78.2643 5.10851L77.6185 5.10896L75.6185 5.11036L59.2456 5.12186L57.2456 5.12326L56.5998 5.12372L55.2456 5.12467ZM87.9914 5.10168C87.9918 5.63212 88.0954 6.13838 88.2832 6.60146C88.096 7.06481 87.9931 7.57122 87.9935 8.10168L89.3477 8.10073L89.9935 8.10027L91.9935 8.09887L108.366 8.08737L110.366 8.08597L111.012 8.08551L112.366 8.08456C112.366 7.55412 112.262 7.04786 112.075 6.58478C112.262 6.12143 112.365 5.61502 112.364 5.08456L111.01 5.08551L110.364 5.08597L108.364 5.08737L91.9914 5.09887L89.9914 5.10027L89.3455 5.10073L87.9914 5.10168ZM120.737 5.07868C120.738 5.60913 120.841 6.11539 121.029 6.57847C120.842 7.04182 120.739 7.54823 120.739 8.07868L122.093 8.07773L122.739 8.07728L124.739 8.07588L141.112 8.06438L143.112 8.06298L143.758 8.06252L145.112 8.06157C145.112 7.53112 145.008 7.02486 144.82 6.56178C145.007 6.09843 145.11 5.59202 145.11 5.06157L143.756 5.06252L143.11 5.06298L141.11 5.06438L124.737 5.07588L122.737 5.07728L122.091 5.07773L120.737 5.07868ZM153.483 5.05569C153.483 5.58614 153.587 6.09241 153.775 6.55549C153.588 7.01884 153.485 7.52524 153.485 8.05569L154.839 8.05474L155.485 8.05429L157.485 8.05288L163.166 8.04889L163.462 8.04869L165.049 8.04757L165.285 8.04741L165.671 8.04714C165.728 8.0471 165.783 8.04395 165.838 8.03785C165.981 8.02195 166.118 7.98602 166.246 7.93291C166.612 7.78061 166.905 7.48711 167.057 7.12035C167.078 7.06897 167.097 7.01616 167.112 6.96209C167.15 6.82999 167.17 6.6904 167.17 6.54608C167.17 6.40176 167.15 6.26221 167.112 6.13016C167.096 6.07611 167.077 6.02333 167.056 5.97198C166.904 5.60543 166.61 5.31235 166.244 5.16056C166.116 5.10763 165.979 5.07188 165.836 5.05619C165.781 5.05017 165.726 5.0471 165.669 5.04714L165.283 5.04741L165.047 5.04757L163.46 5.04869L163.164 5.0489L157.483 5.05288L155.483 5.05429L154.837 5.05474L153.483 5.05569Z" fill="#28C76F"/>
</svg>
