<svg width="140" height="14" viewBox="0 0 140 14" fill="none" xmlns="http://www.w3.org/2000/svg">
<path fill-rule="evenodd" clip-rule="evenodd" d="M128.96 2.02665C128.431 1.75837 128.22 1.11334 128.489 0.585909C128.759 0.0584822 129.406 -0.151605 129.936 0.116666L138.154 4.28038C138.5 4.21245 138.872 4.31531 139.136 4.58671C139.368 4.82525 139.466 5.14332 139.432 5.44926C139.46 5.65685 139.426 5.87466 139.324 6.07543C139.164 6.38953 138.869 6.59107 138.545 6.64607L132.041 12.9121C131.614 13.3235 130.932 13.3122 130.52 12.8868C130.107 12.4614 130.117 11.7832 130.544 11.3717L136.356 5.77381L128.96 2.02665ZM0 4.55505C0.00043027 5.12339 0.111865 5.66581 0.313877 6.16197C0.112618 6.65841 0.00182422 7.20098 0.00225449 7.76933L1.45893 7.76832L2.15361 7.76782L4.30496 7.76632L21.9169 7.754L24.0682 7.7525L24.7629 7.75202L26.2196 7.751C26.2192 7.18266 26.1077 6.64025 25.9057 6.1441C26.1071 5.64765 26.2178 5.10506 26.2173 4.53672L24.7607 4.53773L24.066 4.53822L21.9146 4.53972L4.3027 4.55204L2.15135 4.55354L1.45668 4.55403L0 4.55505ZM35.2239 4.53042C35.2243 5.09875 35.3357 5.64117 35.5377 6.13732C35.3364 6.63377 35.2257 7.17635 35.2261 7.7447L36.6828 7.74368L37.3775 7.74319L39.5288 7.74169L57.1403 7.72937L59.2917 7.72787L59.9866 7.72738L61.443 7.72636C61.443 7.15803 61.3311 6.61561 61.13 6.11945C61.3311 5.62301 61.4419 5.08042 61.4409 4.51207L59.9844 4.51309L59.2895 4.51358L57.1382 4.51508L39.5266 4.52741L37.3752 4.52891L36.6804 4.5294L35.2239 4.53042ZM70.4475 4.50577C70.4486 5.07411 70.5594 5.61654 70.7616 6.11269C70.5605 6.60914 70.4497 7.15172 70.4497 7.72006L71.9061 7.71904L72.601 7.71856L74.7524 7.71706L92.3644 7.70474L94.5158 7.70324L95.2106 7.70275L96.6671 7.70173C96.6671 7.13339 96.5552 6.59097 96.353 6.09481C96.5542 5.59836 96.665 5.05578 96.665 4.48744L95.2085 4.48846L94.5136 4.48895L92.3623 4.49045L74.7502 4.50277L72.5989 4.50427L71.904 4.50476L70.4475 4.50577ZM105.672 4.48114C105.672 5.04948 105.783 5.59191 105.986 6.08807C105.785 6.58452 105.674 7.12709 105.674 7.69543L107.13 7.69441L107.825 7.69393L109.976 7.69242L116.087 7.68814L116.406 7.68793L118.113 7.68673L118.367 7.68656L118.782 7.68627C118.843 7.68622 118.902 7.68285 118.962 7.67631C119.115 7.65928 119.263 7.62078 119.4 7.56388C119.794 7.4007 120.109 7.08623 120.273 6.69328C120.295 6.63823 120.316 6.58165 120.332 6.52371C120.373 6.38218 120.394 6.23262 120.394 6.07799C120.394 5.92336 120.373 5.77384 120.332 5.63236C120.315 5.57445 120.294 5.5179 120.272 5.46288C120.108 5.07015 119.792 4.75613 119.398 4.5935C119.261 4.53679 119.113 4.49849 118.959 4.48168C118.9 4.47523 118.841 4.47194 118.78 4.47198L118.365 4.47227L118.111 4.47244L116.404 4.47364L116.085 4.47387L109.974 4.47813L107.823 4.47964L107.128 4.48012L105.672 4.48114Z" fill="#67CE67"/>
</svg>
