<svg width="10" height="10" viewBox="0 0 10 10" fill="none" xmlns="http://www.w3.org/2000/svg">
<path d="M2.19708 1.13642C1.90418 0.843525 1.42931 0.843525 1.13642 1.13642C0.843525 1.42931 0.843525 1.90418 1.13642 2.19708L2.19708 1.13642ZM7.80308 8.86375C8.09598 9.15664 8.57085 9.15664 8.86375 8.86375C9.15664 8.57085 9.15664 8.09598 8.86375 7.80308L7.80308 8.86375ZM8.86375 2.19708C9.15664 1.90418 9.15664 1.42931 8.86375 1.13642C8.57085 0.843525 8.09598 0.843525 7.80308 1.13642L8.86375 2.19708ZM1.13642 7.80308C0.843525 8.09598 0.843525 8.57085 1.13642 8.86375C1.42931 9.15664 1.90418 9.15664 2.19708 8.86375L1.13642 7.80308ZM1.13642 2.19708L7.80308 8.86375L8.86375 7.80308L2.19708 1.13642L1.13642 2.19708ZM7.80308 1.13642L1.13642 7.80308L2.19708 8.86375L8.86375 2.19708L7.80308 1.13642Z" fill="#C02F2F"/>
<path d="M2.19708 1.13642C1.90418 0.843525 1.42931 0.843525 1.13642 1.13642C0.843525 1.42931 0.843525 1.90418 1.13642 2.19708L2.19708 1.13642ZM7.80308 8.86375C8.09598 9.15664 8.57085 9.15664 8.86375 8.86375C9.15664 8.57085 9.15664 8.09598 8.86375 7.80308L7.80308 8.86375ZM8.86375 2.19708C9.15664 1.90418 9.15664 1.42931 8.86375 1.13642C8.57085 0.843525 8.09598 0.843525 7.80308 1.13642L8.86375 2.19708ZM1.13642 7.80308C0.843525 8.09598 0.843525 8.57085 1.13642 8.86375C1.42931 9.15664 1.90418 9.15664 2.19708 8.86375L1.13642 7.80308ZM1.13642 2.19708L7.80308 8.86375L8.86375 7.80308L2.19708 1.13642L1.13642 2.19708ZM7.80308 1.13642L1.13642 7.80308L2.19708 8.86375L8.86375 2.19708L7.80308 1.13642Z" fill="white" fill-opacity="0.2"/>
</svg>
