<svg width="10" height="10" viewBox="0 0 10 10" fill="none" xmlns="http://www.w3.org/2000/svg">
<path d="M2.19696 1.13636C1.90406 0.843464 1.42919 0.843464 1.1363 1.13636C0.843403 1.42925 0.843403 1.90412 1.1363 2.19702L2.19696 1.13636ZM7.80296 8.86368C8.09586 9.15658 8.57073 9.15658 8.86362 8.86368C9.15652 8.57079 9.15652 8.09592 8.86362 7.80302L7.80296 8.86368ZM8.86362 2.19702C9.15652 1.90412 9.15652 1.42925 8.86362 1.13636C8.57073 0.843464 8.09586 0.843464 7.80296 1.13636L8.86362 2.19702ZM1.1363 7.80302C0.843403 8.09592 0.843403 8.57079 1.1363 8.86368C1.42919 9.15658 1.90406 9.15658 2.19696 8.86368L1.1363 7.80302ZM1.1363 2.19702L7.80296 8.86368L8.86362 7.80302L2.19696 1.13636L1.1363 2.19702ZM7.80296 1.13636L1.1363 7.80302L2.19696 8.86368L8.86362 2.19702L7.80296 1.13636Z" fill="#4B465C"/>
<path d="M2.19696 1.13636C1.90406 0.843464 1.42919 0.843464 1.1363 1.13636C0.843403 1.42925 0.843403 1.90412 1.1363 2.19702L2.19696 1.13636ZM7.80296 8.86368C8.09586 9.15658 8.57073 9.15658 8.86362 8.86368C9.15652 8.57079 9.15652 8.09592 8.86362 7.80302L7.80296 8.86368ZM8.86362 2.19702C9.15652 1.90412 9.15652 1.42925 8.86362 1.13636C8.57073 0.843464 8.09586 0.843464 7.80296 1.13636L8.86362 2.19702ZM1.1363 7.80302C0.843403 8.09592 0.843403 8.57079 1.1363 8.86368C1.42919 9.15658 1.90406 9.15658 2.19696 8.86368L1.1363 7.80302ZM1.1363 2.19702L7.80296 8.86368L8.86362 7.80302L2.19696 1.13636L1.1363 2.19702ZM7.80296 1.13636L1.1363 7.80302L2.19696 8.86368L8.86362 2.19702L7.80296 1.13636Z" fill="white" fill-opacity="0.2"/>
</svg>
