<svg width="14" height="16" viewBox="0 0 14 16" fill="none" xmlns="http://www.w3.org/2000/svg">
<path fill-rule="evenodd" clip-rule="evenodd" d="M2 0.25C1.0335 0.25 0.25 1.0335 0.25 2V14C0.25 14.9665 1.0335 15.75 2 15.75H4C4.9665 15.75 5.75 14.9665 5.75 14V2C5.75 1.0335 4.9665 0.25 4 0.25H2ZM1.75 2C1.75 1.86193 1.86193 1.75 2 1.75H4C4.13807 1.75 4.25 1.86193 4.25 2V14C4.25 14.1381 4.13807 14.25 4 14.25H2C1.86193 14.25 1.75 14.1381 1.75 14V2ZM10 0.25C9.0335 0.25 8.25 1.0335 8.25 2V14C8.25 14.9665 9.0335 15.75 10 15.75H12C12.9665 15.75 13.75 14.9665 13.75 14V2C13.75 1.0335 12.9665 0.25 12 0.25H10ZM9.75 2C9.75 1.86193 9.86193 1.75 10 1.75H12C12.1381 1.75 12.25 1.86193 12.25 2V14C12.25 14.1381 12.1381 14.25 12 14.25H10C9.86193 14.25 9.75 14.1381 9.75 14V2Z" fill="white"/>
</svg>
